/* XPM */
static char * shrImage64_XPM[] = {
"64 64 343 2",
"  	c None",
". 	c #7D8000",
"+ 	c #989C00",
"@ 	c #AAAF00",
"# 	c #B5BA00",
"$ 	c #B8BD00",
"% 	c #B6BC00",
"& 	c #B5B900",
"* 	c #A2A700",
"= 	c #949700",
"- 	c #6D7100",
"; 	c #CAD000",
"> 	c #E7EE00",
", 	c #F3FA00",
"' 	c #F2F900",
") 	c #F1F800",
"! 	c #F5FC00",
"~ 	c #E0E600",
"{ 	c #C2C800",
"] 	c #A3A700",
"^ 	c #7A7E00",
"/ 	c #A9AF00",
"( 	c #E6EC00",
"_ 	c #EDF400",
": 	c #EEF500",
"< 	c #EAF100",
"[ 	c #E5EC00",
"} 	c #C9CF00",
"| 	c #727500",
"1 	c #B7BD00",
"2 	c #E3EA00",
"3 	c #EFF600",
"4 	c #D5DB00",
"5 	c #848800",
"6 	c #D2D800",
"7 	c #E6ED00",
"8 	c #DFE500",
"9 	c #979C00",
"0 	c #9DA200",
"a 	c #D2D900",
"b 	c #AEB400",
"c 	c #E7ED00",
"d 	c #F0F700",
"e 	c #BBC100",
"f 	c #D3D900",
"g 	c #A1A600",
"h 	c #ECF300",
"i 	c #DAE000",
"j 	c #D1D700",
"k 	c #C8CE00",
"l 	c #CACF00",
"m 	c #CED300",
"n 	c #D7DD00",
"o 	c #E1E800",
"p 	c #EBF200",
"q 	c #EDF300",
"r 	c #E5EB00",
"s 	c #E4EA00",
"t 	c #E8EF00",
"u 	c #E9F000",
"v 	c #B2B600",
"w 	c #ACB000",
"x 	c #BABF00",
"y 	c #C7CD00",
"z 	c #C6CB00",
"A 	c #BEC300",
"B 	c #B0B500",
"C 	c #B0B400",
"D 	c #D0D600",
"E 	c #F7FF00",
"F 	c #F7FE00",
"G 	c #C1C500",
"H 	c #B7BC00",
"I 	c #AFB400",
"J 	c #BFC400",
"K 	c #E9EF00",
"L 	c #D4DA00",
"M 	c #515300",
"N 	c #161700",
"O 	c #000000",
"P 	c #010100",
"Q 	c #0E0F00",
"R 	c #454600",
"S 	c #9BA000",
"T 	c #E2E900",
"U 	c #B6BB00",
"V 	c #ADB100",
"W 	c #BDC200",
"X 	c #626500",
"Y 	c #676A00",
"Z 	c #656800",
"` 	c #505200",
" .	c #4C4E00",
"..	c #525400",
"+.	c #565800",
"@.	c #616300",
"#.	c #7A7D00",
"$.	c #C1C700",
"%.	c #B1B500",
"&.	c #ADB200",
"*.	c #E4EB00",
"=.	c #C0C500",
"-.	c #D9DF00",
";.	c #F4FB00",
">.	c #242400",
",.	c #212200",
"'.	c #454700",
").	c #686A00",
"!.	c #5B5E00",
"~.	c #434500",
"{.	c #171800",
"].	c #0D0D00",
"^.	c #C5CA00",
"/.	c #BDC300",
"(.	c #878B00",
"_.	c #010200",
":.	c #020200",
"<.	c #030300",
"[.	c #1D1E00",
"}.	c #7F8200",
"|.	c #DBE200",
"1.	c #C1C600",
"2.	c #F1F900",
"3.	c #949800",
"4.	c #B3B800",
"5.	c #7C7F00",
"6.	c #000100",
"7.	c #878A00",
"8.	c #A9AC00",
"9.	c #B2B800",
"0.	c #111100",
"a.	c #3F4100",
"b.	c #AEB200",
"c.	c #DAE100",
"d.	c #8A8F00",
"e.	c #282900",
"f.	c #A5A900",
"g.	c #A4A700",
"h.	c #E0E700",
"i.	c #D7DE00",
"j.	c #707300",
"k.	c #444400",
"l.	c #AEB300",
"m.	c #5F6200",
"n.	c #040500",
"o.	c #919500",
"p.	c #DCE300",
"q.	c #F3FB00",
"r.	c #898E00",
"s.	c #2A2B00",
"t.	c #D1D600",
"u.	c #A6AB00",
"v.	c #787C00",
"w.	c #C6CC00",
"x.	c #F8FF00",
"y.	c #5E6100",
"z.	c #383A00",
"A.	c #D9E000",
"B.	c #B4B900",
"C.	c #BBBF00",
"D.	c #858900",
"E.	c #393A00",
"F.	c #181900",
"G.	c #ADB000",
"H.	c #BCC100",
"I.	c #FFFF00",
"J.	c #0D0E00",
"K.	c #616500",
"L.	c #969B00",
"M.	c #B8BC00",
"N.	c #818500",
"O.	c #0A0A00",
"P.	c #B9BE00",
"Q.	c #BEC400",
"R.	c #F6FD00",
"S.	c #797D00",
"T.	c #959A00",
"U.	c #5C5F00",
"V.	c #DDE300",
"W.	c #868B00",
"X.	c #C9CE00",
"Y.	c #040400",
"Z.	c #8B8F00",
"`.	c #BBC000",
" +	c #ECF200",
".+	c #CDD300",
"++	c #F6FE00",
"@+	c #717400",
"#+	c #B2B700",
"$+	c #DDE400",
"%+	c #0E0E00",
"&+	c #4F5200",
"*+	c #F5FD00",
"=+	c #8A8E00",
"-+	c #858800",
";+	c #A4AA00",
">+	c #141500",
",+	c #232400",
"'+	c #C3C800",
")+	c #CFD500",
"!+	c #D8DE00",
"~+	c #BFC600",
"{+	c #060600",
"]+	c #8A8D00",
"^+	c #AFB300",
"/+	c #D3DA00",
"(+	c #6F7200",
"_+	c #1A1B00",
":+	c #AAAE00",
"<+	c #888B00",
"[+	c #0F0F00",
"}+	c #9EA100",
"|+	c #C3C900",
"1+	c #F0F800",
"2+	c #DFE600",
"3+	c #131300",
"4+	c #292A00",
"5+	c #7E8200",
"6+	c #EEF400",
"7+	c #F2F800",
"8+	c #292B00",
"9+	c #414200",
"0+	c #ACB100",
"a+	c #2B2D00",
"b+	c #A6AA00",
"c+	c #ABAF00",
"d+	c #C4C900",
"e+	c #E3E900",
"f+	c #BDC100",
"g+	c #121200",
"h+	c #CBD100",
"i+	c #C0C600",
"j+	c #595B00",
"k+	c #1F2000",
"l+	c #464800",
"m+	c #B4B800",
"n+	c #E1E700",
"o+	c #909300",
"p+	c #8F9200",
"q+	c #929500",
"r+	c #939700",
"s+	c #7E8100",
"t+	c #494B00",
"u+	c #272700",
"v+	c #9CA000",
"w+	c #0F1000",
"x+	c #252600",
"y+	c #838700",
"z+	c #050600",
"A+	c #8D9200",
"B+	c #646700",
"C+	c #BFC500",
"D+	c #FBFF00",
"E+	c #898D00",
"F+	c #3E4000",
"G+	c #3E3F00",
"H+	c #4A4C00",
"I+	c #545600",
"J+	c #090A00",
"K+	c #1D1D00",
"L+	c #9B9F00",
"M+	c #B5BB00",
"N+	c #E8EE00",
"O+	c #2F3000",
"P+	c #D2D700",
"Q+	c #1C1D00",
"R+	c #B7BB00",
"S+	c #A5AA00",
"T+	c #101100",
"U+	c #0B0B00",
"V+	c #A7AB00",
"W+	c #666900",
"X+	c #BCC200",
"Y+	c #050500",
"Z+	c #777B00",
"`+	c #BAC000",
" @	c #929600",
".@	c #666800",
"+@	c #3F4000",
"@@	c #424300",
"#@	c #D5DA00",
"$@	c #D5DC00",
"%@	c #3A3C00",
"&@	c #F9FF00",
"*@	c #767B00",
"=@	c #AFB200",
"-@	c #101000",
";@	c #4E5000",
">@	c #A3A800",
",@	c #C5CB00",
"'@	c #D6DC00",
")@	c #333400",
"!@	c #717500",
"~@	c #6B6E00",
"{@	c #9EA300",
"]@	c #B1B600",
"^@	c #868A00",
"/@	c #757800",
"(@	c #666A00",
"_@	c #CED400",
":@	c #D0D700",
"<@	c #D4DB00",
"[@	c #979A00",
"}@	c #343500",
"|@	c #C4CB00",
"1@	c #969A00",
"2@	c #6B6F00",
"3@	c #B3B700",
"4@	c #A7AC00",
"5@	c #0B0C00",
"6@	c #DEE400",
"7@	c #1E1F00",
"8@	c #5D6000",
"9@	c #505300",
"0@	c #2A2C00",
"a@	c #ABB000",
"b@	c #A1A500",
"c@	c #585B00",
"d@	c #D8DF00",
"e@	c #2C2D00",
"f@	c #CCD200",
"g@	c #080900",
"h@	c #F2FA00",
"i@	c #303100",
"j@	c #121300",
"k@	c #4B4E00",
"l@	c #A4A900",
"m@	c #F4FC00",
"n@	c #8C9000",
"o@	c #313300",
"p@	c #EFF700",
"q@	c #767900",
"r@	c #989D00",
"s@	c #EEF600",
"t@	c #D4D900",
"u@	c #A6AC00",
"v@	c #AFB500",
"w@	c #A8AD00",
"x@	c #E2E800",
"y@	c #D1D800",
"z@	c #9A9E00",
"A@	c #EAF000",
"B@	c #B4BA00",
"                                                                                                                                ",
"                                                                                                                                ",
"                                                                                                                                ",
"                                                                                                                                ",
"                                                                                                                                ",
"                                                                                                                                ",
"                                                                                                                                ",
"                                                                                                                                ",
"                                                                                                                                ",
"                                                  . + @ # $ % & * = -                                                           ",
"                                          $ ; > , , ' ' ) ) ) ) ' ' , ! ~ { ] ^                                                 ",
"                                  / ( > _ : : : _ : : : : : : : : : : _ : : : < [ } |                                           ",
"                              1 2 ' : _ : : : : : : : : : : : : : : : : : : : : _ 3 , 4 5                                       ",
"                          6 7 : : _ : : : : : : : : : : : : : : : : : : : : : : : : : : 3 8 9                                   ",
"                      0 2 3 _ : : : : : : : : : : : : : : : : : : : : : : : : : : : : : : _ ' a                                 ",
"                    6 3 : _ : : : : : : : : : : : : : : : : : : : : : : : : : : : : : : : : _ 3 ( b                             ",
"                  c 3 _ : : : : : : : _ : : : : _ : : : : : : : : : : : : : : : : : : : : : : : _ d e                           ",
"                > : _ : : : : : : : 3 d 3 3 3 3 3 : : _ : : : : : : : : : : : : : : : : : : : : : : ' f                         ",
"            g ' _ : : : : _ : _ h ( i j ; k l m n o p _ : _ : : : : q r 2 2 2 2 2 2 2 2 2 2 2 s t h _ : n                       ",
"            u _ : : : : _ ) ! r l v w x y z A # B C x D t : _ ) E F ' G H H $ $ $ $ $ H # v I C # J 6 K ' L                     ",
"          t : : : : _ : ' $ M N O P P O Q R S p T D U V W ( ' H X Y Z `  . ...+.+.+.+.@.#.& j $.%.V &.e *.: =.                  ",
"        -.3 _ : : : ;.S >.O O ,.'.Z ).!.~.{.O ].. _ > ^.w /.d (.O O O P _.P :.<.<.<.<.O O O [.}.|.H V V 1.h 2.3.                ",
"      4.: _ : : : _ 5.:.O 6.7.8.j 3 3 : < c 9.0.O a.K K /.b.c.d.O O e.f.g.] z o h.h.h.i.j.O O O k.t C V l.i 3 : m.              ",
"      o : : : : 3 L n.O <.o.v %.*.: : : : _ ) p.,.O (.q.-.b.z r.O O s.b.V w t.: : : _ : F u.<.O O v.J V w w.: : }               ",
"    k d _ : : : x.y.O O z.V V U < : : : : : _ d A.O O ) t B.C.D.O O s.b.V w t.: : : : : _ ! E.O O F.% V G.H.h : _               ",
"    h _ : : : : I.J.O O K.I V U < : : : : : : _ ;.M O L.) W M.N.O O s.b.V w t.: : : : : : , + O O O.S V V P.< : d J             ",
"  Q._ : : : : : R.O O O S.I V b.i : _ : : : : : : T.O U.! V.8 W.O O s.b.V w t.: : : : : : d X.O O Y.Z.V V `. +: : d             ",
"  .+: : : : : : ++O O O @+#+V V H $+h : : : : : _ B %+&+! : *+=+O O s.b.V w t.: : : : : : d L O O :.-+V w z : : : d ;+          ",
"  *.: : : : : : I.>+O O ,+'+V V V v '+n [ _ 3 : : 7 )+!+: : ! =+O O s.b.V w t.: : : : : : ) ~+O O {+]+V ^+V.3 : : : /+          ",
"  ) _ : : : : : ++(+O O O _+0 :+^+b.V V #+J D ~ K h _ : : _ ! =+O O s.b.V w t.: : : : : : ;.<+O O [+}+b.|+h : : : : p.          ",
"&.1+: : : : : : : 2+3+O O O O 4+` 5+V M.%.V V C M.'+j o _ : ! =+O O s.b.V G.D 6+q q q q q 7+8+O O 9+%.J ( : _ : : : o           ",
"`.1+: : : : : : : : 0+<.O O O O O O O a+j.b+c+V b.V V C d+e+! =+O O s.b.V V U W H.H.H.f+H.}.:.O g+U h+< : : : : : : u           ",
"i+) : : : : : : : _ R.; j+0.O O O O O O O O k+l+5.m+b.V w # n+d.O O ,+o+p+p+q+= = = r+s+t+P O u+v+# L h : : : : : : d X         ",
"1.) : : : : : : : : _ : _ < $.K.w+O O O O O O O 6.x+u.V b.V f+y+O O O :.:.:.:.:.:.:.:.P O z+A+*.A V b.k p _ : : : : d B+        ",
"C+1+: : : : : : : : _ : : : d x.D+; E+..4+O O O O O F.:+^+b.v @+O O w+F+G+G+H+I+I+I+I+l+J+O K+L+u H.V b.f : : : : : :           ",
"M+) : : : : : : : : :  +*.N+: _ : : 3 _ r L y.O O O O O+x V v ).O O s.^+V V P+3 : : : p $+Q+O O * ~ B V R+> : : : : [           ",
"S+1+_ : : : : : ' q.3 2 #+w.: : : : : : _ : x.% T+O O U+V+V #+W+O O s.b.V w t.: : : : _ : X+Y+O O -.W V 0+j 3 : : : ~           ",
"  2._ : : : : h 3.Z+A.[ v W _ : : : : : : : _ ' `+O O O  @&.#+.@O O s.b.V w t.: : : : : _ ! +@O O @@#@V G.`.p : : _ i           ",
"  $@: : : : : p %@O `+p $ B.> : : : : : : : : _ &@k+O O *@=@v W+O O s.b.V w t.: : : : : : ) `.O O -@Q.&.V %.T : : : }           ",
"  y : : : : : d ;@:.>@: ,@&.'@: _ : : : : : : : ! )@O O !@b.v ~@O O s.b.V w t.: : : : : : : &@J.O O {@]@V b.!+_ _ ' ^@          ",
"    h _ : : : d 5.O /@_ i ^+`.N+: : : : : : : _ x.F.O O N.V B.#.O O s.b.V w t.: : : : : : : ! H+O O (@`.V b._@_ : <             ",
"    [ : : : : : :@O ,.;.p d+0+'+c 3 : : : : : d <@O O U+[@V .+E+O O s.b.V w t.: : : : : : : ) 5+O O }@|@w b.w._ ' 1@            ",
"    S+1+: : : _ D+ .O 2@;.t i+V H L ( p h h h ' E.O O E.3@|+d =+O O s.b.V w t.: : : : : : : : 4@O O 5@_@w b.=.h 6@              ",
"      t.: : : : : o 7@O 8@u ;.j U b.v P.=.X.{ 9@O O 0@P.'@ +! =+O O s.V a@@ t.: : : : : : : _ 1 :.O O l a@w `.: w               ",
"        t : : : : : a 0.O 6.B+d+N+'@,@W b@c@Y+O O F+d@p : _ ! =+O O e@f@j D n+: : : : : : : : i+g@O O `.f j !+8                 ",
"        Q.h@_ : : _ ) 6+. i@O O O :.Y.O O O j@k@l@x.3 : _ : m@n@O Y.o@7 3 p@: _ : : : : : : : k 0.Y.O l.;.3 c                   ",
"          '+3 : : : _ : _ u 2 U d.q@@+. S f >  +: : _ : : : : < [ ( > _ : : : : : : : : : : : h 7 ( [ p : : r@                  ",
"            i.d _ : : : : : : ) m@R.++*+, 3 : : : : : : : : : : : : : : : : : : : : : : : : : : : : : : s@a@                    ",
"              t@d : : : : : : : : : : : : : : : : : : : : : : : : : : : : : : : : : : : : : : : : : _ : u@                      ",
"                6 d : _ : : : : : : : : : : : : : : : : : : : : : : : : : : : : : : : : : : : : : : < 0+                        ",
"                  v@d : : : : : : : : : : : : : : : : : : : : : : : : : : : : : : : : : : : : _ : < Z+                          ",
"                    w@x@3 : : : : : : : : : : : : : : : : : : : : : : : : : : : : : : : : _ : _ y@                              ",
"                        `+3 3 _ : : : : : : : : : : : : : : : : : : : : : : : : : : : : _ ' V.D.                                ",
"                            f K : : _ : : : : : : : : : : : : : : : : : : : : : _ : : h 7 B.                                    ",
"                                H.6@2.p@_ : : : : : : : : : : : : : : : : : _ : ) d } @                                         ",
"                                    z@D p p _ : : : : : : : _ : : : : : : h p A@B@                                              ",
"                                              ; D f '@2 _ : : < $+4 a _@w.                                                      ",
"                                                                                                                                ",
"                                                                                                                                ",
"                                                                                                                                ",
"                                                                                                                                ",
"                                                                                                                                ",
"                                                                                                                                ",
"                                                                                                                                "};
